<svg width="73" height="55" viewBox="0 0 73 55" fill="none" xmlns="http://www.w3.org/2000/svg">
<path d="M21.4629 54V43.5228V54ZM52.1738 46.9128V36.4357V46.9128Z" fill="white"/>
<path d="M71.7344 14.338C71.7344 10.5913 67.8837 7.54852 63.1354 7.54852C62.739 7.55202 62.3431 7.57726 61.9494 7.62412C59.9391 3.71438 55.571 1 50.4943 1C43.5111 1 37.8532 6.124 37.8532 12.441C37.8532 12.8591 37.8791 13.2773 37.9311 13.6907C34.8104 14.7089 32.6134 17.1351 32.6134 19.9652C32.6134 23.7119 36.4641 26.757 41.2125 26.757C43.0219 26.7711 44.802 26.2996 46.3672 25.3916C48.3988 27.0618 51.6495 28.1485 55.3253 28.1485C61.484 28.1485 66.4758 25.1081 66.4758 21.359C66.4758 21.1109 66.4521 20.8629 66.4073 20.6196C69.5327 19.6014 71.7344 17.1729 71.7344 14.338Z" fill="#B1CC33" stroke="#B1CC33" stroke-width="1.9" stroke-miterlimit="10" stroke-linecap="round"/>
<path d="M40.121 22.0252C40.121 18.2785 36.2703 15.2357 31.5219 15.2357C31.1256 15.2392 30.7297 15.2644 30.336 15.3113C28.3257 11.4016 23.9576 8.68719 18.8809 8.68719C11.9 8.68719 6.23976 13.8088 6.23976 20.1282C6.23976 20.5463 6.26574 20.9645 6.31772 21.3779C3.19701 22.3937 1 24.8199 1 27.6524C1 31.3991 4.85068 34.4419 9.59906 34.4419C11.4085 34.4559 13.1886 33.9844 14.7538 33.0764C16.7854 34.749 20.0361 35.8357 23.7119 35.8357C29.8706 35.8357 34.8624 32.7953 34.8624 29.0462C34.8624 28.7981 34.8387 28.5501 34.7938 28.3068C37.9193 27.2862 40.121 24.86 40.121 22.0252Z" fill="#B1CC33"/>
<path d="M21.4629 54V43.5228M52.1738 46.9128V36.4357" stroke="#512700" stroke-width="2" stroke-linecap="round" stroke-linejoin="round"/>
<path d="M46.3671 25.3916C48.3987 27.0618 51.6494 28.1485 55.3252 28.1485C61.4839 28.1485 66.4757 25.1081 66.4757 21.359C66.4757 21.1109 66.452 20.8629 66.4072 20.6196C69.5326 19.6014 71.7343 17.1752 71.7343 14.338C71.7343 10.5913 67.8836 7.54852 63.1353 7.54852C62.7389 7.55202 62.343 7.57726 61.9493 7.62412C59.939 3.71438 55.5709 1 50.4942 1C44.5669 1 39.5941 4.69003 38.2263 9.66993" stroke="#512700" stroke-width="2" stroke-miterlimit="10" stroke-linecap="round"/>
<path d="M40.121 22.0252C40.121 18.2785 36.2703 15.2357 31.5219 15.2357C31.1256 15.2392 30.7297 15.2644 30.336 15.3113C28.3257 11.4016 23.9576 8.68719 18.8809 8.68719C11.9 8.68719 6.23976 13.8088 6.23976 20.1282C6.23976 20.5463 6.26574 20.9645 6.31772 21.3779C3.19701 22.3937 1 24.8199 1 27.6524C1 31.3991 4.85068 34.4419 9.59906 34.4419C11.4085 34.4559 13.1886 33.9844 14.7538 33.0764C16.7854 34.749 20.0361 35.8357 23.7119 35.8357C29.8706 35.8357 34.8624 32.7953 34.8624 29.0462C34.8624 28.7981 34.8387 28.5501 34.7939 28.3068C37.9193 27.2862 40.121 24.86 40.121 22.0252Z" stroke="#512700" stroke-width="1.9" stroke-miterlimit="10" stroke-linecap="round"/>
</svg>
